<?xml version="1.0" standalone="no"?>
<!DOCTYPE svg PUBLIC "-//W3C//DTD SVG 20010904//EN"
 "http://www.w3.org/TR/2001/REC-SVG-20010904/DTD/svg10.dtd">
<svg version="1.0" xmlns="http://www.w3.org/2000/svg"
 width="701.000000pt" height="564.000000pt" viewBox="0 0 701.000000 564.000000"
 preserveAspectRatio="xMidYMid meet">

<g transform="translate(0.000000,564.000000) scale(0.100000,-0.100000)"
fill="#000000" stroke="none">
<path d="M3510 5094 c-40 -34 -56 -66 -70 -144 -17 -96 -83 -270 -141 -373
-151 -269 -360 -477 -656 -653 -97 -58 -130 -84 -107 -84 3 0 49 25 104 56
223 128 440 319 573 504 72 102 192 330 203 386 10 52 24 41 18 -13 -34 -310
-153 -558 -379 -792 -197 -205 -381 -333 -741 -514 -210 -107 -308 -165 -403
-242 -86 -70 -177 -179 -216 -260 -33 -71 -65 -195 -65 -255 0 -59 24 -139 51
-174 12 -15 20 -29 18 -31 -2 -1 -49 -20 -104 -40 -199 -74 -409 -194 -549
-314 -55 -47 -60 -49 -81 -35 -39 25 -132 143 -165 210 -28 54 -32 71 -28 119
9 102 71 151 313 246 72 28 198 73 280 101 83 28 154 55 160 59 23 21 -43 5
-191 -47 -211 -74 -194 -70 -194 -46 0 44 49 173 96 251 63 106 181 241 288
329 139 114 298 181 408 170 39 -4 51 5 22 16 -49 19 -183 -8 -276 -55 -46
-23 -63 -28 -67 -18 -2 7 -21 46 -42 86 -22 40 -39 83 -39 96 0 70 104 140
260 176 101 23 145 28 390 41 102 6 203 15 224 21 56 15 100 63 119 129 9 30
25 87 36 125 43 151 138 181 275 85 61 -43 90 -53 61 -20 -29 32 -107 77 -153
90 -109 29 -181 -38 -218 -201 -21 -93 -45 -141 -84 -169 -33 -24 -69 -28
-411 -49 -189 -12 -290 -34 -397 -87 -80 -39 -122 -87 -122 -140 0 -17 18 -65
40 -107 22 -41 40 -82 40 -90 0 -8 -39 -48 -87 -88 -207 -176 -356 -401 -381
-573 l-7 -49 -100 -42 c-123 -51 -154 -67 -194 -101 -64 -53 -87 -143 -59
-225 18 -54 94 -167 151 -223 l52 -52 -67 -78 c-101 -117 -128 -206 -89 -292
37 -82 153 -164 231 -164 l35 0 -3 -79 c-7 -136 43 -237 140 -285 69 -35 128
-34 261 4 118 33 211 39 256 16 49 -26 92 -87 153 -215 102 -217 149 -247 413
-263 88 -5 231 -20 318 -34 341 -52 576 -19 852 118 278 138 499 319 1059 868
414 406 647 693 785 969 68 135 91 191 78 191 -7 0 -30 -40 -51 -88 -90 -201
-253 -443 -442 -658 -92 -105 -438 -453 -664 -670 -442 -422 -721 -607 -1055
-700 -134 -38 -324 -43 -510 -14 -77 11 -225 27 -330 35 -232 16 -282 31 -349
106 -26 29 -57 80 -76 127 -111 266 -179 302 -435 232 -134 -37 -196 -38 -255
-7 -50 26 -104 98 -121 160 -6 23 -9 71 -7 107 9 160 133 299 423 472 384 229
824 394 1253 469 87 15 112 35 31 25 -202 -26 -574 -133 -812 -232 -454 -192
-793 -418 -875 -587 -22 -43 -26 -47 -60 -47 -120 1 -257 143 -237 247 29 156
295 397 605 549 191 94 355 142 724 214 178 34 279 65 381 119 75 39 195 143
195 169 0 10 -21 -5 -57 -40 -73 -71 -146 -117 -248 -156 -104 -39 -164 -54
-370 -92 -93 -17 -203 -40 -243 -51 l-73 -20 -19 23 c-11 13 -29 48 -41 78
-55 143 31 384 196 546 88 86 200 157 461 293 387 200 546 310 742 513 114
117 187 220 257 363 93 187 134 363 135 580 1 116 52 195 127 195 73 0 116
-41 195 -188 75 -139 185 -263 313 -354 28 -19 127 -74 220 -123 195 -101 273
-153 338 -225 240 -266 229 -777 -21 -1026 -87 -88 -183 -133 -377 -179 -357
-84 -428 -113 -548 -225 -85 -79 -108 -91 -227 -115 -85 -17 -180 -57 -180
-75 0 -14 2 -13 57 15 26 14 84 32 128 40 123 24 144 33 216 101 130 122 224
165 498 224 253 55 348 98 450 201 71 72 116 147 152 254 70 209 58 452 -31
644 -17 35 -29 66 -27 68 6 6 171 -33 287 -67 340 -102 757 -365 939 -595 206
-259 266 -471 232 -830 -23 -244 -66 -350 -196 -481 -44 -44 -134 -121 -200
-170 -167 -125 -248 -209 -420 -439 -217 -290 -467 -534 -631 -614 -175 -87
-421 -82 -733 14 -122 38 -131 39 -131 26 0 -8 186 -66 310 -97 36 -8 131 -18
215 -21 225 -8 320 20 480 142 78 60 84 62 155 69 175 17 578 103 737 157 190
64 311 168 388 333 53 112 65 163 65 263 0 85 -20 179 -73 346 l-35 107 25 62
c50 124 66 234 67 458 1 185 -1 213 -22 283 -93 322 -322 580 -712 804 -211
122 -438 210 -655 254 l-110 22 -59 64 c-75 82 -136 123 -326 218 -176 88
-258 141 -348 229 -87 83 -142 156 -202 267 -76 141 -120 179 -204 179 -33 0
-52 -6 -76 -26z m2666 -3021 c29 -93 38 -140 41 -223 5 -95 3 -113 -21 -185
-78 -232 -227 -365 -491 -438 -206 -58 -677 -149 -691 -134 -2 2 47 56 110
120 119 120 207 227 338 407 104 144 198 238 365 364 79 59 176 143 215 186
l73 79 12 -29 c7 -16 29 -82 49 -147z"/>
<path d="M6030 1990 c0 -5 5 -10 10 -10 6 0 10 5 10 10 0 6 -4 10 -10 10 -5 0
-10 -4 -10 -10z"/>
<path d="M5946 1661 c-10 -21 -31 -58 -47 -82 -29 -43 -38 -76 -19 -64 13 8
86 134 95 163 11 37 -11 25 -29 -17z"/>
<path d="M5455 1330 c3 -5 8 -10 11 -10 2 0 4 5 4 10 0 6 -5 10 -11 10 -5 0
-7 -4 -4 -10z"/>
<path d="M3850 4629 c0 -31 48 -145 89 -214 20 -33 87 -126 148 -207 199 -261
248 -367 247 -528 -1 -116 -24 -193 -84 -286 -24 -35 -40 -68 -36 -72 20 -19
112 153 131 245 18 86 18 140 0 227 -23 108 -83 215 -229 411 -162 216 -200
277 -229 372 -22 72 -37 93 -37 52z"/>
<path d="M3600 4594 c0 -71 84 -358 153 -524 79 -192 104 -306 87 -398 -27
-150 -127 -273 -285 -354 -100 -51 -177 -77 -340 -114 -60 -13 -133 -36 -161
-49 -101 -49 -181 -171 -224 -339 -24 -94 -25 -136 -6 -200 25 -81 98 -154
144 -143 15 3 14 5 -3 12 -73 29 -123 101 -132 189 -10 101 57 296 132 384 57
66 108 89 301 137 233 59 354 115 454 214 78 76 123 158 141 256 18 98 -8 214
-95 428 -58 141 -118 338 -137 450 -6 37 -15 67 -20 67 -5 0 -9 -7 -9 -16z"/>
<path d="M3540 4257 c0 -26 62 -261 72 -272 15 -17 9 24 -23 148 -28 113 -49
166 -49 124z"/>
<path d="M4910 3831 c0 -9 61 -57 171 -133 80 -57 134 -116 162 -177 17 -36
21 -65 21 -136 0 -77 -6 -106 -38 -200 -47 -138 -198 -447 -308 -630 -161
-268 -401 -611 -666 -948 -46 -60 -82 -111 -78 -114 3 -3 12 0 20 6 27 22 420
552 529 711 285 420 505 847 552 1074 19 92 19 136 1 203 -25 94 -86 165 -216
253 -36 24 -81 56 -101 72 -39 30 -49 34 -49 19z"/>
<path d="M3517 3527 c-37 -44 -67 -85 -67 -89 0 -20 20 -3 76 64 70 85 77 95
66 102 -4 2 -38 -32 -75 -77z"/>
<path d="M4950 3574 c0 -4 20 -29 45 -55 25 -27 50 -60 57 -74 10 -22 28 -35
28 -20 0 16 -37 73 -72 111 -37 40 -58 54 -58 38z"/>
<path d="M4896 3362 c-3 -5 1 -16 10 -23 9 -7 30 -37 46 -66 37 -65 57 -60 24
5 -27 52 -71 99 -80 84z"/>
<path d="M5001 3069 c-23 -56 -25 -69 -13 -69 8 0 52 96 52 113 0 23 -20 0
-39 -44z"/>
<path d="M1875 2690 c-3 -5 -1 -10 4 -10 6 0 11 5 11 10 0 6 -2 10 -4 10 -3 0
-8 -4 -11 -10z"/>
<path d="M4698 2632 c-43 -32 -137 -88 -210 -127 -73 -38 -170 -97 -215 -129
-148 -105 -315 -293 -494 -556 -78 -116 -176 -216 -249 -255 -49 -27 -64 -30
-145 -30 -49 0 -146 6 -215 13 -70 8 -155 11 -195 7 -165 -15 -335 -54 -335
-77 0 -6 8 -7 18 -3 47 18 188 46 284 56 85 9 132 8 225 -2 65 -8 161 -14 213
-14 85 0 101 3 154 29 77 38 174 135 261 261 138 200 212 292 325 406 124 126
206 184 419 299 125 67 251 152 251 170 0 17 -12 11 -92 -48z"/>
<path d="M2670 1663 c0 -11 109 -27 118 -18 9 9 -2 13 -60 20 -36 5 -58 4 -58
-2z"/>
<path d="M1321 1581 c-23 -27 -37 -52 -32 -55 8 -5 91 84 91 98 0 17 -22 1
-59 -43z"/>
<path d="M2500 1570 c0 -5 5 -10 10 -10 6 0 10 5 10 10 0 6 -4 10 -10 10 -5 0
-10 -4 -10 -10z"/>
<path d="M2335 1460 c3 -5 8 -10 11 -10 2 0 4 5 4 10 0 6 -5 10 -11 10 -5 0
-7 -4 -4 -10z"/>
<path d="M4744 1391 c-16 -10 -71 -50 -123 -89 -51 -40 -97 -72 -102 -72 -5 0
-9 -7 -9 -15 0 -22 25 -8 125 70 44 34 97 73 118 87 44 29 36 46 -9 19z"/>
<path d="M1485 1349 c-29 -11 -78 -18 -117 -19 -44 0 -68 -4 -68 -11 0 -21
169 -5 218 20 69 35 52 41 -33 10z"/>
<path d="M4955 1360 c3 -5 8 -10 11 -10 2 0 4 5 4 10 0 6 -5 10 -11 10 -5 0
-7 -4 -4 -10z"/>
<path d="M2441 1329 c-97 -30 -108 -35 -99 -45 8 -7 228 59 228 69 0 12 -31 6
-129 -24z"/>
<path d="M4635 1098 c-70 -35 -70 -36 -61 -45 8 -8 146 57 146 69 0 14 -24 8
-85 -24z"/>
<path d="M4200 1090 c0 -5 5 -10 10 -10 6 0 10 5 10 10 0 6 -4 10 -10 10 -5 0
-10 -4 -10 -10z"/>
</g>
</svg>
